<?xml version="1.0" encoding="utf-8"?>
<!-- Generator: Adobe Illustrator 15.0.0, SVG Export Plug-In . SVG Version: 6.00 Build 0)  -->
<!DOCTYPE svg PUBLIC "-//W3C//DTD SVG 1.1//EN" "http://www.w3.org/Graphics/SVG/1.1/DTD/svg11.dtd">
<svg version="1.1"
	 id="svg2426" inkscape:output_extension="org.inkscape.output.svg.inkscape" inkscape:version="0.46+devel" sodipodi:docname="system-logo-sprite.svg" sodipodi:version="0.32" xmlns:dc="http://purl.org/dc/elements/1.1/" xmlns:cc="http://creativecommons.org/ns#" xmlns:rdf="http://www.w3.org/1999/02/22-rdf-syntax-ns#" xmlns:inkscape="http://www.inkscape.org/namespaces/inkscape" xmlns:svg="http://www.w3.org/2000/svg" xmlns:sodipodi="http://sodipodi.sourceforge.net/DTD/sodipodi-0.dtd"
	 xmlns="http://www.w3.org/2000/svg" xmlns:xlink="http://www.w3.org/1999/xlink" x="0px" y="0px" width="48px" height="48px"
	 viewBox="0 0 48 48" enable-background="new 0 0 48 48" xml:space="preserve">
<defs>
	
	
		<inkscape:perspective  id="perspective2434" inkscape:persp3d-origin="0.5 : 0.33333333 : 1" sodipodi:type="inkscape:persp3d" inkscape:vp_x="0 : 0.5 : 1" inkscape:vp_z="1 : 0.5 : 1" inkscape:vp_y="0 : 1000 : 0">
		</inkscape:perspective>
</defs>
<sodipodi:namedview  id="namedview2428" inkscape:pageopacity="0" inkscape:pageshadow="2" inkscape:window-width="1400" inkscape:window-height="840" inkscape:window-x="0" inkscape:window-y="33" inkscape:current-layer="g2436" gridtolerance="10" guidetolerance="10" inkscape:zoom="1.9070707" inkscape:cx="109.75519" pagecolor="#ffffff" bordercolor="#666666" showgrid="false" inkscape:cy="10.925242" borderopacity="1" objecttolerance="10">
	</sodipodi:namedview>
<g>
	<path fill="#0E85CD" d="M10.299,20.711c1.087-1.168,1.64-2.555,1.64-4.123c0-1.556-0.523-2.925-1.557-4.065
		c-1.142-1.257-2.599-1.895-4.33-1.895c-1.739,0-3.2,0.642-4.341,1.904c-1.032,1.142-1.556,2.506-1.556,4.057
		c0,1.568,0.552,2.955,1.641,4.123c0.717,0.771,1.577,1.293,2.564,1.564H2.825V37.14h9.05v-2.691H5.546v-3.93h6.329v-2.693H5.546
		v-2.857h6.384v-2.692H7.737C8.723,22.004,9.581,21.483,10.299,20.711z M8.828,18.3c-0.291,0.517-0.67,0.905-1.16,1.184
		c-0.494,0.282-1.024,0.419-1.62,0.419c-0.597,0-1.127-0.138-1.621-0.419c-0.491-0.279-0.87-0.667-1.16-1.184
		c-0.293-0.524-0.437-1.075-0.437-1.683c0-0.942,0.313-1.721,0.957-2.383c0.638-0.657,1.377-0.976,2.26-0.976
		c0.877,0,1.616,0.32,2.256,0.977c0.646,0.661,0.96,1.44,0.96,2.382C9.264,17.224,9.122,17.775,8.828,18.3z"/>
	<path fill="#0E85CD" d="M33.441,22.088c0.66-0.254,1.261-0.628,1.787-1.114c0.524-0.48,0.988-1.114,1.379-1.881l0.307-0.604
		l-2.222-1.167h2.325l-0.007-0.693c-0.013-1.513-0.433-2.802-1.248-3.83c-1.147-1.458-2.701-2.197-4.615-2.197
		c-1.866,0-3.38,0.725-4.497,2.151c-0.869,1.11-1.311,2.392-1.311,3.809c0,1.508,0.519,2.875,1.542,4.067
		c1.05,1.22,2.511,1.838,4.341,1.838C32.037,22.467,32.784,22.339,33.441,22.088z M29.099,13.974
		c0.579-0.519,1.257-0.771,2.067-0.771c0.497,0,0.958,0.102,1.409,0.312c0.44,0.205,0.793,0.473,1.054,0.797
		c0.119,0.15,0.227,0.326,0.323,0.527h-5.486C28.645,14.479,28.855,14.189,29.099,13.974z M28.95,19.01
		c-0.449-0.465-0.73-1.021-0.85-1.688h6.549l-0.325,0.538c-0.354,0.586-0.673,1.008-0.953,1.252
		c-0.274,0.236-0.615,0.43-1.013,0.577c-0.404,0.148-0.823,0.223-1.247,0.223C30.244,19.912,29.538,19.617,28.95,19.01z"/>
	<path fill="#0E85CD" d="M47.435,13.145c-0.327-0.765-0.843-1.383-1.534-1.835c-0.688-0.453-1.482-0.682-2.36-0.682
		c-0.848,0-1.643,0.2-2.364,0.593c-0.238,0.129-0.47,0.28-0.692,0.454v-0.789h-2.656v11.352h2.656v-4.346
		c0-1.562,0.088-2.249,0.161-2.544c0.16-0.621,0.485-1.129,0.992-1.552c0.492-0.412,1.031-0.61,1.646-0.61
		c0.525,0,0.926,0.115,1.227,0.351c0.299,0.236,0.498,0.596,0.612,1.103l0.003,0.014c0.047,0.186,0.124,0.71,0.124,2.138v5.447
		h2.656v-5.822C47.904,14.951,47.75,13.88,47.435,13.145z"/>
	<path fill="#0E85CD" d="M20.174,31.134c0,1.531-0.098,2.058-0.156,2.229c-0.143,0.424-0.396,0.756-0.774,1.018
		c-0.385,0.268-0.854,0.397-1.433,0.397c-0.582,0-1.059-0.135-1.463-0.412c-0.388-0.266-0.645-0.619-0.781-1.072
		c-0.072-0.251-0.157-0.829-0.157-2.16l-0.017-9.701c0.261,0.191,0.532,0.356,0.814,0.495c0.758,0.376,1.597,0.566,2.495,0.566
		c1.596,0,2.978-0.586,4.106-1.744c1.124-1.151,1.694-2.57,1.694-4.215c0-1.618-0.576-3.021-1.71-4.17
		c-1.138-1.152-2.526-1.737-4.127-1.737c-0.921,0-1.772,0.203-2.529,0.603c-0.258,0.136-0.505,0.296-0.743,0.479v-0.824h-2.657
		l0.018,20.395c0,1.53,0.178,2.669,0.543,3.472c0.377,0.83,0.959,1.487,1.728,1.953c0.757,0.46,1.696,0.691,2.792,0.691
		c1.095,0,2.031-0.232,2.783-0.693c0.761-0.466,1.337-1.115,1.715-1.937c0.366-0.792,0.544-1.904,0.544-3.395v-5.584h-2.684V31.134z
		 M16.246,14.197c0.629-0.645,1.387-0.958,2.313-0.958c0.597,0,1.13,0.143,1.632,0.435c0.501,0.291,0.889,0.69,1.188,1.223
		c0.3,0.535,0.448,1.085,0.448,1.679c0,0.589-0.148,1.138-0.452,1.68c-0.303,0.539-0.695,0.946-1.201,1.244
		c-0.504,0.295-1.026,0.44-1.597,0.44c-0.587,0-1.131-0.145-1.663-0.443c-0.524-0.294-0.915-0.679-1.192-1.175
		c-0.284-0.505-0.421-1.063-0.421-1.708C15.301,15.635,15.61,14.846,16.246,14.197z"/>
	<rect x="23.72" y="21.937" fill="#0E85CD" width="2.657" height="15.203"/>
	<path fill="#0E85CD" d="M38.876,31.532c-0.014-1.514-0.435-2.804-1.249-3.83c-1.148-1.458-2.7-2.199-4.615-2.199
		c-1.867,0-3.381,0.727-4.497,2.153c-0.87,1.109-1.313,2.392-1.313,3.81c0,1.508,0.52,2.875,1.543,4.064
		c1.052,1.223,2.511,1.84,4.34,1.84c0.815,0,1.563-0.129,2.22-0.38c0.661-0.253,1.262-0.627,1.788-1.111
		c0.524-0.483,0.988-1.114,1.377-1.884l0.309-0.602l-2.224-1.169h2.328L38.876,31.532z M30.961,28.876
		c0.579-0.519,1.256-0.77,2.069-0.77c0.496,0,0.958,0.102,1.408,0.311c0.439,0.204,0.794,0.474,1.054,0.799
		c0.119,0.148,0.227,0.323,0.323,0.525H30.33C30.51,29.383,30.72,29.092,30.961,28.876z M36.189,32.762
		c-0.354,0.587-0.674,1.009-0.956,1.252c-0.271,0.236-0.611,0.431-1.012,0.577c-0.403,0.149-0.821,0.225-1.247,0.225
		c-0.866,0-1.573-0.296-2.16-0.903c-0.448-0.465-0.729-1.021-0.852-1.688h6.551L36.189,32.762z"/>
	<path fill="#0E85CD" d="M44.283,25.531c-0.604,0-1.188,0.183-1.733,0.539c-0.059,0.039-0.116,0.08-0.176,0.122v-0.403H39.69V37.14
		h2.684v-4.06c0-2.069,0.116-2.918,0.212-3.265c0.173-0.607,0.408-1.047,0.702-1.308c0.272-0.239,0.527-0.356,0.783-0.356
		c0.033,0,0.154,0.009,0.409,0.119l0.545,0.234l1.357-2.195l-0.627-0.351C45.252,25.676,44.757,25.531,44.283,25.531z"/>
</g>
</svg>
